<svg id="Layer_1" xmlns="http://www.w3.org/2000/svg" viewBox="0 0 248.5 69"><style>.st0{fill:#13adc0}.st1{fill:none}.st2{fill:url(#SVGID_1_)}.st3{fill:url(#SVGID_2_)}</style><path class="st0" d="M80 29.7c0 .8-.1 1.7-.3 2.5-.2.8-.5 1.6-1 2.3-.5.7-1.1 1.3-1.9 1.8-.8.5-1.7.9-2.8 1.2v.3c1 .2 1.9.4 2.7.8s1.6.9 2.2 1.6 1.1 1.5 1.5 2.4c.4 1 .5 2.1.5 3.4 0 1.7-.4 3.2-1.1 4.5s-1.7 2.3-3 3.1c-1.2.8-2.6 1.4-4.2 1.8-1.6.4-3.2.6-4.8.6h-2.1c-.8 0-1.8 0-2.7-.1-1 0-2-.1-3-.2s-1.9-.2-2.8-.4V22.2c.6-.1 1.3-.2 2.1-.3s1.6-.2 2.5-.2c.9-.1 1.8-.1 2.8-.1h2.8c1.6 0 3.1.1 4.6.4 1.5.2 2.8.7 4 1.3 1.2.6 2.1 1.5 2.8 2.5.8.9 1.2 2.3 1.2 3.9zM65.9 36h1.6c.6 0 1.1-.1 1.5-.1 1.2-.4 2.3-.9 3.1-1.7.9-.8 1.3-1.8 1.3-3 0-.8-.2-1.5-.5-2s-.7-1-1.3-1.3c-.5-.3-1.1-.5-1.8-.7-.6-.2-1.3-.2-2.1-.2h-2.3c-.7 0-1.2.1-1.6.1V36h2.1zM68 50.5c.8 0 1.5-.1 2.3-.3.7-.2 1.4-.5 2-.9.6-.4 1-.9 1.4-1.5.3-.6.5-1.3.5-2.1 0-1-.2-1.9-.6-2.5-.4-.6-.9-1.1-1.6-1.4s-1.4-.5-2.2-.6c-.8-.1-1.6-.1-2.4-.1H64v9.2c.2.1.4.1.8.1.3 0 .7.1 1.1.1H68zm35.8 3c-1 .8-2.3 1.4-3.9 1.9s-3.4.8-5.3.8c-3.9 0-6.7-1.1-8.5-3.4s-2.7-5.4-2.7-9.3c0-4.2 1-7.4 3-9.5 2-2.1 4.8-3.2 8.5-3.2 1.2 0 2.4.2 3.6.5 1.2.3 2.2.8 3.1 1.6.9.7 1.6 1.7 2.2 3 .5 1.2.8 2.8.8 4.7 0 .7 0 1.4-.1 2.2-.1.8-.2 1.6-.4 2.4H89.8c.1 2 .6 3.5 1.6 4.6.9 1 2.5 1.5 4.6 1.5 1.3 0 2.5-.2 3.5-.6 1-.4 1.8-.8 2.4-1.2l1.9 4zm-8.9-17.7c-1.6 0-2.8.5-3.6 1.5-.8 1-1.2 2.3-1.4 3.9h8.9c.1-1.7-.1-3.1-.8-4-.6-.9-1.7-1.4-3.1-1.4zm26.4 1.6c-1-.4-1.9-.5-2.7-.5-1.1 0-2.1.3-2.8.9-.8.6-1.3 1.4-1.5 2.3v15.5h-6.2v-24h4.8l.7 3.2h.2c.5-1.2 1.3-2.1 2.2-2.7.9-.6 2-1 3.3-1 .8 0 1.8.2 2.8.5l-.8 5.8zm23 18.1c0 3.5-.9 6.1-2.8 7.7-1.9 1.6-4.5 2.5-7.9 2.5-2.3 0-4.1-.2-5.4-.5-1.3-.3-2.3-.7-3-1l1.3-4.9c.7.3 1.6.6 2.6.9 1 .3 2.2.4 3.6.4 2.2 0 3.7-.5 4.4-1.4.8-.9 1.2-2.3 1.2-4v-1.5h-.3c-1.1 1.5-3.1 2.3-6 2.3-3.1 0-5.4-1-6.9-2.9s-2.3-4.9-2.3-9c0-4.3 1-7.5 3.1-9.7s5-3.3 8.9-3.3c2 0 3.9.1 5.5.4 1.6.3 2.9.6 4 1v23zm-10.6-4.6c1.2 0 2.2-.3 2.8-.8.7-.5 1.2-1.4 1.5-2.4V36.8c-1-.4-2.2-.6-3.7-.6-1.6 0-2.8.6-3.7 1.8-.9 1.2-1.3 3.1-1.3 5.7 0 2.3.4 4.1 1.2 5.3.7 1.3 1.8 1.9 3.2 1.9zm29.7 4.6V41.9c0-2-.3-3.4-.8-4.2-.5-.9-1.5-1.3-3-1.3-1.1 0-2 .4-2.9 1.1-.9.7-1.5 1.6-1.8 2.8v15.3h-6.2V21.9h6.2v12.3h.2c.8-1 1.7-1.8 2.8-2.4 1.1-.6 2.5-.9 4.3-.9 1.2 0 2.3.2 3.2.5.9.3 1.7.8 2.3 1.6.6.7 1.1 1.7 1.4 3 .3 1.3.5 2.8.5 4.7v14.9h-6.2zm29.7-2c-1 .8-2.3 1.4-3.9 1.9s-3.4.8-5.3.8c-3.9 0-6.7-1.1-8.5-3.4-1.8-2.3-2.7-5.4-2.7-9.3 0-4.2 1-7.4 3-9.5 2-2.1 4.8-3.2 8.5-3.2 1.2 0 2.4.2 3.6.5 1.2.3 2.2.8 3.1 1.6.9.7 1.6 1.7 2.2 3s.8 2.8.8 4.7c0 .7 0 1.4-.1 2.2s-.2 1.6-.4 2.4H179c.1 2 .6 3.5 1.6 4.6.9 1 2.5 1.5 4.6 1.5 1.3 0 2.5-.2 3.5-.6 1-.4 1.8-.8 2.4-1.2l2 4zm-8.9-17.7c-1.6 0-2.8.5-3.6 1.5-.8 1-1.2 2.3-1.4 3.9h8.9c.1-1.7-.1-3.1-.8-4-.7-.9-1.7-1.4-3.1-1.4zM197 24.7c0-.9.3-1.7 1-2.4s1.6-1 2.9-1c1.2 0 2.2.3 3 1 .8.7 1.1 1.4 1.1 2.4 0 .9-.4 1.7-1.1 2.3-.8.6-1.7.9-3 .9-1.2 0-2.2-.3-2.9-.9-.7-.5-1-1.3-1-2.3zm.9 6.8h6.2v24h-6.2v-24zm25 24v-13c0-2.2-.2-3.8-.6-4.7-.4-.9-1.3-1.4-2.6-1.4-1.1 0-2 .3-2.6.9-.7.6-1.2 1.4-1.5 2.3v16h-6.2v-24h4.8l.7 3.2h.2c.7-1 1.7-1.9 2.8-2.7 1.1-.8 2.6-1.2 4.4-1.2 1.5 0 2.8.3 3.8.9 1 .6 1.7 1.7 2.3 3.1.7-1.2 1.7-2.2 2.8-3 1.2-.7 2.5-1.1 4.2-1.1 1.3 0 2.5.2 3.4.5.9.3 1.7.9 2.3 1.7.6.8 1 1.8 1.3 3.1.3 1.3.4 3 .4 5v14.4h-6.2V42c0-1.9-.2-3.3-.6-4.2-.4-.9-1.3-1.4-2.7-1.4-1.1 0-2 .3-2.7.9-.7.6-1.1 1.4-1.5 2.5v15.7h-6.2zM44 18.2h-3.3c-1.2-7.3-7.6-12.9-15.2-12.9s-14 5.6-15.2 12.9H7c-1.6 0-3 1.3-3 3l1 31.7c0 1.6 1.4 3 3 3h15.3V39.5c0-1.2 1-2.2 2.2-2.2v-1.1 1.1c1.2 0 2.2 1 2.2 2.2v16.4H43c1.6 0 3-1.4 3-3l1-31.7c0-1.7-1.3-3-3-3zM25.5 33c-6.7 0-12.1-5.4-12.1-12.1S18.8 8.8 25.5 8.8c6.7 0 12.1 5.4 12.1 12.1S32.2 33 25.5 33z"/><path class="st0" d="M25.5 16.7c-.7 0-1.3.2-1.9.5l-6.2-2.6 4 5.4c-.1.3-.1.6-.1.9 0 2.3 1.9 4.2 4.2 4.2 2.3 0 4.2-1.9 4.2-4.2s-1.9-4.2-4.2-4.2z"/><path class="st1" d="M25.5 5.3c7.7 0 14 5.6 15.2 12.9H44c1.6 0 3 1.3 3 3l-1 31.7c0 1.6-1.4 3-3 3H27.7V39.5c0-1.2-1-2.2-2.2-2.2"/><path class="st1" d="M37.6 20.9c0-6.7-5.4-12.1-12.1-12.1v7.9c2.3 0 4.2 1.9 4.2 4.2s-1.9 4.2-4.2 4.2V33c6.7 0 12.1-5.4 12.1-12.1z"/><linearGradient id="SVGID_1_" gradientUnits="userSpaceOnUse" x1="25.5" y1="30.579" x2="47" y2="30.579"><stop offset="0" stop-color="#118e9d"/><stop offset="1" stop-color="#118e9d" stop-opacity="0"/></linearGradient><path class="st2" d="M27.7 39.5v16.4H43c1.6 0 3-1.4 3-3l1-31.7c0-1.7-1.4-3-3-3h-3.3c-1.2-7.3-7.6-12.9-15.2-12.9v3.5c6.7 0 12.1 5.4 12.1 12.1S32.2 33 25.5 33v4.3c1.2 0 2.2 1 2.2 2.2z"/><linearGradient id="SVGID_2_" gradientUnits="userSpaceOnUse" x1="25.5" y1="20.912" x2="29.688" y2="20.912"><stop offset="0" stop-color="#118e9d"/><stop offset="1" stop-color="#118e9d" stop-opacity="0"/></linearGradient><path class="st3" d="M29.7 20.9c0-2.3-1.9-4.2-4.2-4.2v8.4c2.3 0 4.2-1.9 4.2-4.2z"/></svg>